<?xml version="1.0" encoding="utf-8"?>
<!-- Generator: Adobe Illustrator 19.2.1, SVG Export Plug-In . SVG Version: 6.00 Build 0)  -->
<svg version="1.1" id="Layer_1" xmlns="http://www.w3.org/2000/svg" xmlns:xlink="http://www.w3.org/1999/xlink" x="0px" y="0px"
	 viewBox="0 0 24 24" style="enable-background:new 0 0 24 24;" xml:space="preserve">
<style type="text/css">
	.st0{fill:#FFFFFF;}
	.st1{fill:none;}
</style>
<g>
	<path class="st0" d="M21.1,9.9c-0.2,0-0.4-0.1-0.5-0.4c-1.1-3.8-4.7-6.5-8.7-6.5c-4,0-7.5,2.7-8.6,6.5C3.3,9.8,3,10,2.7,9.9
		C2.4,9.8,2.3,9.5,2.4,9.3C3.6,5,7.5,2.1,12,2.1c4.4,0,8.4,3,9.6,7.2c0.1,0.3-0.1,0.5-0.3,0.6C21.2,9.9,21.1,9.9,21.1,9.9z"/>
	<path class="st0" d="M21.1,9.9c-0.1,0-0.1,0-0.2,0l-3.3-1.3c-0.3-0.1-0.4-0.4-0.3-0.6c0.1-0.3,0.4-0.4,0.6-0.3l2.8,1.1l1.1-2.9
		c0.1-0.3,0.4-0.4,0.6-0.3c0.3,0.1,0.4,0.4,0.3,0.6l-1.3,3.4C21.5,9.8,21.3,9.9,21.1,9.9z"/>
	<path class="st0" d="M12,22c-4.4,0-8.4-3-9.6-7.2c-0.1-0.3,0.1-0.5,0.3-0.6c0.3-0.1,0.5,0.1,0.6,0.3C4.5,18.4,8,21,12,21
		c4,0,7.5-2.7,8.6-6.5c0.1-0.3,0.4-0.4,0.6-0.3c0.3,0.1,0.4,0.4,0.3,0.6C20.4,19.1,16.4,22,12,22z"/>
	<path class="st0" d="M1.6,18.6c-0.1,0-0.1,0-0.2,0c-0.3-0.1-0.4-0.4-0.3-0.6l1.3-3.4c0.1-0.3,0.4-0.4,0.6-0.3l3.3,1.3
		c0.3,0.1,0.4,0.4,0.3,0.6c-0.1,0.3-0.4,0.4-0.6,0.3l-2.8-1.1L2,18.3C2,18.5,1.8,18.6,1.6,18.6z"/>
</g>
<rect y="0" class="st1" width="24" height="24"/>
</svg>
